<svg width="1024" height="1024" viewBox="0 0 1024 1024" fill="none" xmlns="http://www.w3.org/2000/svg">
<path d="M810.78 28.3459L848.323 41.6398L871.812 52.4635L882.743 58.8017L904.084 72.1283L913.909 79.7016L932.973 95.4333L941.627 104.177L958.349 122.249L965.799 132.097L980.081 152.38L986.295 163.301L998.006 185.728L1002.92 197.69L1012.03 222.1L1015.54 235.069L1019.19 250.313L1020.84 260.064L1021.36 265.46L1021.85 270.986L1022.02 274.041L1022.31 280.314L1022.41 283.792L1022.57 291.105L1022.6 295.201L1022.63 303.782V308.657L1022.5 322.861L1022.37 331.02L1022.24 334.563L1021.98 341.356L1021.76 344.346L1021.3 350.132L1021.01 352.797L1019.48 362.938L1018.27 368.041L1016.97 373.209L1016.19 376.037L1014.53 381.79L1013.56 385.041L1001.94 416.732L992.508 437.112L987.043 446.765L975.559 465.747L969.117 474.588L955.811 491.783L948.524 499.616L938.699 510.18L945.01 517.981L948.654 522.434L951.907 526.432L953.827 528.772L961.993 538.848L966.059 543.821L975.689 556.725L981.805 565.988L984.668 570.929L995.762 591.439L1000.54 602.588L1009.49 625.438L1013 637.399L1019.41 661.712L1021.56 674.096L1022.99 685.667L1023.64 694.443L1023.77 699.221L1024 719.243L1023.54 729.677L1022.24 750.512L1021.07 760.003L1019.8 769.266L1019.05 773.459L1017.49 781.455L1016.58 784.836L1010.89 803.785L1006.53 816.104L1004.06 822.117L993.484 845.682L987.108 856.766L973.704 878.446L966.027 888.522L949.956 908.187L941.009 917.158L922.498 934.58L912.348 942.413L891.527 957.43L880.303 963.996L857.367 976.445L845.135 981.645L820.215 991.364L807.072 995.134L801.248 996.824L798.321 997.507L792.237 998.775L788.366 999.262L784.299 999.75L781.924 999.977L776.914 1000.37L773.953 1000.56L767.74 1000.92L764.096 1001.05L756.386 1001.34L751.896 1001.47L742.429 1001.7L736.964 1001.8L725.48 1001.96L718.875 1002.06L705.114 1002.19L697.274 1002.25L680.942 1002.38L671.703 1002.45L652.541 1002.51L641.805 1002.58L619.521 1002.64L607.158 1002.68L594.536 1002.71L587.899 1002.74L574.398 1002.77H567.306L552.894 1002.8L545.346 1002.84L529.991 1002.87H521.922L469.48 1002.97L435.971 1003H420.225H389.417L375.265 1002.97L361.341 1002.93H354.769L341.789 1002.9L335.738 1002.87L323.831 1002.84L318.333 1002.8L307.564 1002.77L302.684 1002.74L293.185 1002.68L288.923 1002.64L280.757 1002.58L277.211 1002.54L270.477 1002.48L267.679 1002.45L262.474 1002.38L260.49 1002.32L256.878 1002.25L255.707 1002.19L253.82 1002.09L253.527 1002.06L220.8 994.517L198.482 987.626L187.649 983.498L166.372 974.819L156.743 970.041L147.341 965.198L143.014 962.728L134.588 957.722L130.847 955.187L109.277 939.39L95.8414 928.242L89.595 922.391L77.4604 910.462L71.8322 904.189L60.9337 891.415L55.9562 884.719L46.294 871.133L41.9022 864.014L33.4436 849.55L29.6698 841.977L22.4476 826.635L19.2593 818.639L13.2083 802.388L10.6382 793.937L5.98601 777.23L3.93643 767.349L3.3183 761.953L2.7653 756.427L2.53755 753.34L2.17964 746.969L2.04958 743.328L1.85439 735.69L1.78926 731.27L1.69167 721.973L1.6591 716.578L1.78926 696.848L2.17964 684.724L2.47242 679.264L3.15568 668.668L3.61108 663.955L4.61959 654.983L5.23772 651.116L6.53901 643.835L7.2873 640.877L8.88137 635.384L9.75982 633.369L11.6142 629.793L12.6552 628.753L14.7373 627.193H15.876L18.7388 627.973L21.1463 629.176L22.4801 630.086L28.1408 634.279L30.7109 636.977L40.4382 645.948L48.3436 652.351L52.8981 655.699L62.3652 662.427L67.5054 665.807L78.0785 672.6L83.609 675.916L106.317 688.95L117.671 694.573L128.927 699.969L134.328 702.341L144.966 706.762L149.911 708.55L171.545 716.285L173.562 731.465L175.221 739.948L176.913 745.929L178.019 748.984L183.062 761.465L186.347 767.609L193.407 779.732L197.376 785.161L205.607 795.432L209.934 799.397L217.384 805.508L223.435 809.863L226.753 812.041L233.487 816.332L236.838 818.249L243.442 821.89L246.435 823.32L268.167 833.591H447.097L448.106 819.679L448.073 805.768L447.097 795.562L446.186 790.101L444.104 779.05L442.705 773.297L439.615 761.758L437.728 755.907L433.759 744.239L431.482 738.453L426.732 727.044L424.097 721.519L418.696 710.727L415.801 705.657L409.88 695.841L406.757 691.42L393.678 674.453L384.277 663.825L379.299 658.851L369.116 649.165L363.781 644.712L352.947 636.034L347.287 632.068L335.868 624.495L329.979 621.115L318.105 614.679L312.021 611.949L299.756 606.716L293.51 604.603L280.985 600.702L274.674 599.272L240.71 590.919L220.116 585.133L210.714 582.078L192.496 575.87L184.103 572.489L167.804 565.598L160.224 561.796L145.421 554.027L138.427 549.737L124.73 540.831L118.126 535.923L105.113 525.749L98.7043 520.093L85.9189 508.425L79.4774 501.924L65.3582 486.745L56.6719 476.311L52.6705 470.948L44.8951 460.124L41.3491 454.534L34.4847 443.222L31.3941 437.404L25.408 425.605L22.7403 419.527L17.6327 407.208L15.3879 400.837L11.1261 387.999L9.30431 381.335L5.88841 367.879L4.48953 360.891L2.17964 346.166L1.07354 335.375L0.748189 329.622L0 305.862L0.422941 293.673L1.85439 269.295L3.35087 258.082L4.9775 247.095L5.95344 242.025L8.06805 232.274L9.30431 227.983L22.2524 192.294L33.0857 169.737L39.5272 159.108L53.1259 138.338L60.9337 128.685L77.1025 109.865L86.1141 101.251L104.723 84.6096L114.84 77.1338L135.661 62.7996L146.82 56.559L169.658 44.7276L181.76 39.8196L206.453 30.6536L219.433 27.1432L227.696 25.2254L234.138 24.1529L238.4 23.7303L242.922 23.3403L245.557 23.1453L251.12 22.8202L254.406 22.6577L261.27 22.3652L265.272 22.2352L273.665 22.0076L278.513 21.9101L288.695 21.7151L294.551 21.6176L306.719 21.4875L313.648 21.4226L328.093 21.2925L336.258 21.26L353.175 21.1625L362.675 21.13L382.325 21.0975L393.288 21.065L415.931 21.0325H428.423L454.287 21H468.471H482.916H490.463H505.786H785.438M328.646 192.197L313.192 192.457L303.791 192.619L299.529 192.717L291.265 192.912L287.524 193.074L280.269 193.334L276.984 193.529L264.719 194.342L259.676 194.992L250.307 196.422L246.37 197.43L238.985 199.673L235.732 201.168L229.453 204.451L226.46 206.563L220.474 211.146L217.286 213.974L210.714 220.02L206.908 223.66L198.515 232.241L193.635 237.832L191.553 240.627L184.005 251.808L181.37 257.789L178.93 263.9L177.954 267.15L176.132 273.781L175.449 277.356L174.213 284.702L173.79 288.7L173.042 296.956L172.846 301.441L172.423 311.128L172.261 316.523V318.798L172.521 327.022L173.107 330.402L174.668 336.87L176.1 340.446L177.661 344.086L178.637 346.166L180.719 350.554L181.988 353.122L192.821 371.162L201.443 382.278L206.322 387.251L216.408 396.807L221.906 400.837L233.064 408.346L238.92 411.206L243.052 412.994L246.403 414.294L248.355 414.977L256.846 417.837L261.758 419.3L282.97 425.118L293.38 427.328L315.177 432.334L328.743 435.877L335.152 437.794L347.775 441.76L353.826 443.97L365.798 448.455L371.621 450.991L383.268 456.191L389.059 459.084L400.64 465.13L406.561 468.478L418.436 475.466L424.617 479.366L437.11 487.427L443.714 491.945L467.886 509.887L483.436 522.954L490.886 530.007L505.591 544.374L512.553 551.979L526.282 567.516L532.723 575.642L545.313 592.154L551.169 600.735L562.556 618.124L567.729 627.063L577.781 645.135L582.238 654.366L590.827 672.991L594.536 682.449L603.612 709.07L609.078 728.312L611.322 738.03L615.487 757.37L616.951 766.406L618.317 775.312L618.805 779.505L619.651 787.631L619.846 791.336L620.627 803.265L621.212 810.838L621.505 814.154L622.058 820.395L622.318 822.767L622.839 826.895L623.034 827.903L623.717 831.088L624.856 832.096L626.19 833.039L627.296 833.396L629.769 834.046L631.623 834.274L635.722 834.696L638.52 834.826L644.636 835.021L648.637 835.086L657.258 835.184H662.659L674.208 835.216H681.235L704.626 834.924L719.656 834.469L726.358 834.144L732.897 833.786L735.858 833.591L741.551 833.201L744.023 832.973L748.676 832.551L750.563 832.291L754.011 831.803L755.182 831.576L777.044 824.913L790.513 818.802L796.661 814.966L808.503 806.776L813.774 802.03L823.794 792.084L828.055 786.558L836.091 775.117L839.247 768.909L845.037 756.232L847.022 749.504L850.373 735.82L851.056 728.702L851.804 714.27L851.089 706.892L848.811 692.785L846.339 683.522L844.68 678.971L841.036 669.935L838.856 665.612L834.171 657.031L831.471 652.968L825.876 644.972L822.752 641.267L816.278 634.019L812.765 630.736L805.575 624.398L801.736 621.635L793.896 616.337L789.764 614.159L782.672 611.169L776.101 608.893L772.197 607.723L755.215 602.945L746.659 601.092L718.518 594.299L701.438 589.391L693.5 586.596L677.949 580.68L670.467 577.202L655.664 569.889L648.28 565.534L633.445 556.302L625.734 550.842L610.119 539.271L601.725 532.477L593.267 525.457L588.81 521.686L579.831 513.918L575.113 509.725L565.516 501.144L560.441 496.528L550.128 487.037L544.695 481.967L530.836 468.998L522.411 461.034L518.539 457.394L511.024 450.243L507.608 446.928L501.004 440.492L498.011 437.502L492.187 431.684L489.52 428.953L484.412 423.623L482.102 421.12L473.416 411.434L469.838 406.948L463.071 398.14L460.208 393.752L454.71 384.943L452.172 380.263L447.26 370.642L444.787 365.214L439.81 353.935L437.045 347.402L426.146 317.758L419.802 296.598L417.232 285.807L412.482 264.16L410.791 253.661L407.96 232.989L407.375 223.498L405.423 191.124M578.139 213.259L581.815 244.983L586.598 265.655L590.046 275.666L597.724 295.428L602.571 304.919L612.949 323.544L619.098 332.352L632.013 349.547L639.366 357.543L654.623 373.079L663.049 380.133L680.454 393.752L689.921 399.732L709.311 411.109L719.689 415.887L725.577 418.585L728.05 419.657L732.734 421.672L734.751 422.387L742.136 424.663L745.52 424.793L752.319 424.403L756.516 423.265L760.908 421.965L763.478 421.055L768.976 419.137L772.229 417.967L785.73 412.311L794.091 408.021L797.898 405.616L805.38 400.61L808.796 397.815L815.433 392.062L818.458 388.876L824.282 382.31L826.917 378.703L832.024 371.292L834.302 367.229L838.661 358.94L840.581 354.455L844.289 345.224L845.883 340.251L850.601 317.563L851.316 302.287L850.568 294.746L848.291 279.729L846.111 272.481L841.101 258.212L837.62 251.516L830.105 238.482L825.518 232.566L815.725 221.222L810.097 216.347L798.321 207.148L791.749 203.54L785.112 200.128L781.631 198.665L774.571 195.967L770.895 194.927L766.959 194.309L762.632 193.919L759.704 193.757L753.328 193.367L749.456 193.204L741.356 192.879L736.736 192.717L727.139 192.424L721.901 192.262L711.1 192.034L705.375 191.937L681.561 191.579L668.938 191.514L577.228 190.994L578.139 213.259Z" fill="white"/>
</svg>
