<svg width="1024" height="1024" viewBox="0 0 1024 1024" fill="none" xmlns="http://www.w3.org/2000/svg">
<rect width="1024" height="1024" rx="512" fill="white"/>
<path d="M696.404 213.533L719.575 221.737L734.071 228.416L740.818 232.328L753.99 240.552L760.053 245.225L771.819 254.933L777.161 260.329L787.481 271.481L792.079 277.559L800.894 290.075L804.729 296.815L811.957 310.655L814.989 318.037L820.611 333.1L822.779 341.104L825.028 350.511L826.052 356.528L826.374 359.858L826.675 363.268L826.775 365.154L826.956 369.025L827.016 371.171L827.117 375.684L827.137 378.211L827.157 383.507V386.516L827.076 395.281L826.996 400.316L826.916 402.502L826.755 406.694L826.615 408.54L826.333 412.11L826.153 413.755L825.209 420.013L824.466 423.162L823.663 426.351L823.181 428.096L822.157 431.647L821.555 433.652L814.387 453.209L808.564 465.786L805.19 471.743L798.103 483.457L794.127 488.913L785.915 499.524L781.417 504.358L775.353 510.877L779.249 515.691L781.497 518.439L783.505 520.906L784.69 522.35L789.73 528.568L792.24 531.637L798.183 539.6L801.958 545.317L803.725 548.366L810.572 561.022L813.523 567.902L819.045 582.003L821.213 589.385L825.169 604.388L826.494 612.031L827.378 619.171L827.779 624.587L827.859 627.535L828 639.891L827.719 646.33L826.916 659.187L826.193 665.044L825.41 670.761L824.948 673.349L823.984 678.283L823.422 680.369L819.908 692.063L817.218 699.665L815.692 703.376L809.166 717.918L805.231 724.758L796.958 738.137L792.22 744.355L782.301 756.49L776.779 762.026L765.354 772.777L759.09 777.611L746.239 786.878L739.312 790.93L725.156 798.612L717.607 801.822L702.226 807.819L694.115 810.146L690.52 811.189L688.713 811.61L684.959 812.392L682.569 812.693L680.06 812.994L678.594 813.135L675.502 813.375L673.674 813.496L669.839 813.716L667.591 813.797L662.832 813.977L660.061 814.057L654.218 814.198L650.845 814.258L643.757 814.358L639.681 814.418L631.188 814.499L626.349 814.539L616.269 814.619L610.567 814.659L598.74 814.699L592.114 814.739L578.36 814.779L570.73 814.799L562.94 814.82L558.844 814.839L550.511 814.86H546.134L537.239 814.88L532.581 814.9L523.104 814.92H518.124L485.757 814.98L465.076 815H455.358H436.343L427.609 814.98L419.015 814.96H414.959L406.948 814.94L403.213 814.92L395.864 814.9L392.471 814.88L385.825 814.86L382.813 814.839L376.95 814.799L374.32 814.779L369.28 814.739L367.091 814.719L362.935 814.679L361.208 814.659L357.996 814.619L356.771 814.579L354.542 814.539L353.819 814.499L352.655 814.438L352.474 814.418L332.275 809.765L318.501 805.512L311.814 802.965L298.683 797.61L292.74 794.661L286.937 791.672L284.266 790.148L279.066 787.059L276.757 785.494L263.445 775.746L255.152 768.866L251.297 765.256L243.808 757.894L240.334 754.023L233.608 746.14L230.535 742.008L224.572 733.624L221.861 729.231L216.641 720.305L214.312 715.631L209.854 706.164L207.887 701.23L204.152 691.201L202.566 685.985L199.694 675.675L198.43 669.578L198.048 666.248L197.707 662.838L197.566 660.933L197.345 657.001L197.265 654.755L197.145 650.041L197.104 647.313L197.044 641.576L197.024 638.247L197.104 626.071L197.345 618.59L197.526 615.22L197.948 608.681L198.229 605.772L198.851 600.236L199.233 597.849L200.036 593.356L200.498 591.531L201.481 588.141L202.024 586.898L203.168 584.691L203.811 584.049L205.096 583.086H205.798L207.565 583.568L209.051 584.31L209.874 584.872L213.368 587.459L214.954 589.124L220.958 594.66L225.837 598.612L228.648 600.678L234.491 604.83L237.663 606.916L244.189 611.108L247.602 613.154L261.617 621.197L268.625 624.667L275.572 627.997L278.905 629.461L285.471 632.189L288.523 633.292L301.875 638.066L303.12 647.433L304.144 652.669L305.188 656.359L305.871 658.245L308.983 665.947L311.011 669.738L315.368 677.22L317.818 680.57L322.898 686.908L325.568 689.355L330.166 693.126L333.901 695.814L335.949 697.158L340.105 699.805L342.174 700.989L346.25 703.235L348.097 704.118L361.509 710.456H471.943L472.565 701.871L472.545 693.287L471.943 686.988L471.381 683.618L470.096 676.799L469.232 673.248L467.325 666.128L466.16 662.517L463.71 655.316L462.305 651.746L459.373 644.705L457.747 641.296L454.414 634.636L452.627 631.507L448.973 625.449L447.045 622.722L438.973 612.251L433.171 605.692L430.099 602.623L423.814 596.646L420.521 593.898L413.835 588.542L410.341 586.095L403.293 581.422L399.659 579.336L392.33 575.364L388.576 573.679L381.006 570.45L377.151 569.146L369.421 566.739L365.525 565.856L344.563 560.702L331.853 557.131L326.05 555.246L314.806 551.415L309.626 549.328L299.566 545.076L294.888 542.729L285.752 537.935L281.435 535.288L272.982 529.792L268.906 526.763L260.875 520.485L256.919 516.994L249.028 509.794L245.052 505.782L236.338 496.415L230.977 489.976L228.508 486.666L223.709 479.987L221.52 476.537L217.284 469.557L215.376 465.966L211.682 458.685L210.035 454.934L206.883 447.332L205.497 443.401L202.867 435.478L201.743 431.366L199.634 423.062L198.771 418.749L197.345 409.663L196.663 403.003L196.462 399.453L196 384.791L196.261 377.269L197.145 362.225L198.068 355.305L199.072 348.525L199.674 345.396L200.98 339.379L201.743 336.731L209.734 314.707L216.42 300.787L220.396 294.228L228.789 281.41L233.608 275.453L243.587 263.839L249.149 258.524L260.634 248.254L266.878 243.641L279.729 234.795L286.616 230.944L300.711 223.643L308.18 220.614L323.42 214.957L331.431 212.791L336.531 211.608L340.507 210.946L343.137 210.685L345.928 210.444L347.555 210.324L350.988 210.123L353.016 210.023L357.253 209.842L359.722 209.762L364.903 209.622L367.894 209.562L374.179 209.441L377.793 209.381L385.303 209.301L389.58 209.261L398.495 209.181L403.534 209.16L413.975 209.1L419.838 209.08L431.966 209.06L438.732 209.04L452.707 209.02H460.418L476.38 209H485.135H494.05H498.708H508.165H680.762M398.836 314.647L389.298 314.807L383.496 314.908L380.865 314.968L375.765 315.088L373.456 315.188L368.979 315.349L366.951 315.469L359.381 315.971L356.269 316.372L350.486 317.254L348.057 317.876L343.499 319.26L341.491 320.183L337.616 322.209L335.768 323.513L332.074 326.341L330.106 328.086L326.05 331.817L323.701 334.063L318.521 339.359L315.509 342.809L314.224 344.534L309.566 351.434L307.939 355.124L306.433 358.895L305.831 360.901L304.707 364.993L304.285 367.199L303.522 371.733L303.261 374.2L302.799 379.295L302.679 382.063L302.418 388.04L302.317 391.37V392.774L302.478 397.848L302.839 399.935L303.803 403.926L304.687 406.133L305.65 408.379L306.253 409.663L307.538 412.371L308.321 413.955L315.007 425.088L320.328 431.947L323.34 435.016L329.564 440.914L332.957 443.401L339.844 448.034L343.459 449.799L346.009 450.903L348.077 451.705L349.281 452.126L354.522 453.891L357.554 454.794L370.645 458.384L377.071 459.748L390.523 462.837L398.896 465.024L402.852 466.207L410.642 468.654L414.377 470.018L421.766 472.786L425.36 474.351L432.548 477.56L436.122 479.345L443.27 483.076L446.925 485.142L454.253 489.455L458.068 491.861L465.779 496.836L469.855 499.624L484.773 510.696L494.371 518.76L498.969 523.112L508.044 531.978L512.341 536.672L520.815 546.26L524.79 551.274L532.561 561.464L536.175 566.759L543.202 577.49L546.395 583.006L552.599 594.159L555.35 599.855L560.651 611.349L562.94 617.185L568.542 633.613L571.915 645.488L573.3 651.485L575.871 663.42L576.774 668.996L577.617 674.492L577.919 677.079L578.441 682.094L578.561 684.381L579.043 691.742L579.405 696.416L579.585 698.462L579.927 702.313L580.087 703.777L580.408 706.324L580.529 706.946L580.951 708.912L581.653 709.534L582.477 710.115L583.159 710.336L584.685 710.737L585.83 710.878L588.36 711.138L590.086 711.219L593.861 711.339L596.331 711.379L601.652 711.439H604.985L612.113 711.459H616.45L630.886 711.279L640.163 710.998L644.299 710.797L648.335 710.577L650.162 710.456L653.676 710.216L655.202 710.075L658.073 709.815L659.238 709.654L661.366 709.353L662.089 709.213L675.582 705.101L683.895 701.33L687.689 698.963L694.998 693.908L698.251 690.98L704.435 684.842L707.065 681.432L712.025 674.372L713.972 670.54L717.547 662.718L718.771 658.566L720.84 650.121L721.261 645.728L721.723 636.822L721.281 632.269L719.876 623.564L718.35 617.847L717.326 615.039L715.077 609.463L713.732 606.795L710.84 601.5L709.174 598.993L705.72 594.058L703.793 591.772L699.797 587.299L697.628 585.273L693.191 581.361L690.822 579.656L685.983 576.387L683.433 575.043L679.056 573.198L675 571.794L672.59 571.072L662.109 568.123L656.828 566.98L639.46 562.788L628.919 559.759L624.02 558.034L614.422 554.383L609.804 552.237L600.668 547.724L596.11 545.036L586.954 539.339L582.195 535.97L572.558 528.829L567.377 524.637L562.157 520.304L559.406 517.977L553.864 513.183L550.953 510.596L545.03 505.301L541.897 502.452L535.532 496.595L532.179 493.466L523.626 485.463L518.425 480.549L516.036 478.302L511.398 473.889L509.289 471.843L505.213 467.872L503.366 466.027L499.772 462.436L498.126 460.751L494.973 457.462L493.548 455.917L488.187 449.94L485.978 447.172L481.801 441.736L480.035 439.028L476.641 433.592L475.075 430.704L472.043 424.767L470.517 421.417L467.445 414.457L465.738 410.425L459.012 392.132L455.097 379.074L453.51 372.415L450.579 359.056L449.535 352.577L447.788 339.82L447.427 333.963L446.222 313.985M552.82 327.645L555.089 347.221L558.041 359.978L560.169 366.156L564.908 378.352L567.899 384.209L574.304 395.702L578.099 401.138L586.071 411.749L590.608 416.683L600.025 426.271L605.226 430.624L615.968 439.028L621.811 442.719L633.778 449.739L640.183 452.688L643.817 454.353L645.343 455.014L648.235 456.258L649.479 456.699L654.037 458.103L656.126 458.184L660.322 457.943L662.912 457.241L665.623 456.439L667.209 455.877L670.602 454.694L672.61 453.971L680.943 450.481L686.103 447.834L688.452 446.349L693.071 443.26L695.179 441.535L699.275 437.985L701.142 436.019L704.736 431.968L706.363 429.741L709.515 425.168L710.921 422.661L713.611 417.546L714.796 414.778L717.085 409.081L718.069 406.012L720.98 392.012L721.422 382.584L720.96 377.931L719.554 368.664L718.209 364.191L715.117 355.385L712.969 351.253L708.33 343.21L705.499 339.559L699.456 332.559L695.982 329.55L688.713 323.874L684.658 321.647L680.561 319.541L678.413 318.638L674.056 316.974L671.787 316.332L669.357 315.951L666.687 315.71L664.88 315.61L660.944 315.369L658.555 315.269L653.555 315.068L650.704 314.968L644.781 314.787L641.548 314.687L634.882 314.547L631.348 314.486L616.651 314.266L608.86 314.226L552.258 313.905L552.82 327.645Z" fill="black"/>
</svg>
