<svg width="48" height="48" viewBox="0 0 48 48" fill="none" xmlns="http://www.w3.org/2000/svg">
<g clip-path="url(#clip0_171_17)">
<path d="M46.9368 1.09959C46.6 0.762074 46.1999 0.494305 45.7595 0.311606C45.3191 0.128907 44.8469 0.0348651 44.3701 0.0348651C43.8933 0.0348651 43.4211 0.128907 42.9807 0.311606C42.5402 0.494305 42.1402 0.762074 41.8033 1.09959L24 18.8665L6.19666 1.06318C5.85959 0.726108 5.45943 0.458731 5.01903 0.27631C4.57863 0.0938896 4.10661 3.5516e-09 3.62992 0C3.15323 -3.5516e-09 2.68121 0.0938896 2.24081 0.27631C1.80041 0.458731 1.40025 0.726108 1.06318 1.06318C0.726108 1.40025 0.458731 1.80041 0.27631 2.24081C0.0938896 2.68121 -3.5516e-09 3.15323 0 3.62992C3.5516e-09 4.10661 0.0938896 4.57863 0.27631 5.01903C0.458731 5.45943 0.726108 5.85959 1.06318 6.19666L18.8665 24L1.06318 41.8033C0.726108 42.1404 0.458731 42.5406 0.27631 42.981C0.0938896 43.4214 0 43.8934 0 44.3701C0 44.8468 0.0938896 45.3188 0.27631 45.7592C0.458731 46.1996 0.726108 46.5998 1.06318 46.9368C1.40025 47.2739 1.80041 47.5413 2.24081 47.7237C2.68121 47.9061 3.15323 48 3.62992 48C4.10661 48 4.57863 47.9061 5.01903 47.7237C5.45943 47.5413 5.85959 47.2739 6.19666 46.9368L24 29.1335L41.8033 46.9368C42.1404 47.2739 42.5406 47.5413 42.981 47.7237C43.4214 47.9061 43.8934 48 44.3701 48C44.8468 48 45.3188 47.9061 45.7592 47.7237C46.1996 47.5413 46.5998 47.2739 46.9368 46.9368C47.2739 46.5998 47.5413 46.1996 47.7237 45.7592C47.9061 45.3188 48 44.8468 48 44.3701C48 43.8934 47.9061 43.4214 47.7237 42.981C47.5413 42.5406 47.2739 42.1404 46.9368 41.8033L29.1335 24L46.9368 6.19666C48.3203 4.81317 48.3203 2.48308 46.9368 1.09959Z" fill="white"/>
</g>
<defs>
<clipPath id="clip0_171_17">
<rect width="48" height="48" fill="white"/>
</clipPath>
</defs>
</svg>
