<svg width="48" height="48" viewBox="0 0 48 48" fill="none" xmlns="http://www.w3.org/2000/svg">
<g clip-path="url(#clip0_30_501)">
<path d="M38.4 34.5H42V42H38.4V34.5ZM31.2 27H34.8V42H31.2V27ZM15 42C12.6139 41.9976 10.3264 41.2067 8.6392 39.8007C6.95199 38.3947 6.00286 36.4884 6 34.5H9.6C9.6 35.39 9.9167 36.26 10.5101 37.0001C11.1034 37.7401 11.9468 38.3169 12.9335 38.6575C13.9202 38.9981 15.006 39.0872 16.0535 38.9135C17.101 38.7399 18.0632 38.3113 18.8184 37.682C19.5736 37.0526 20.0879 36.2508 20.2962 35.3779C20.5046 34.505 20.3977 33.6002 19.9889 32.7779C19.5802 31.9557 18.8881 31.2529 18.0001 30.7584C17.1121 30.2639 16.068 30 15 30V27C17.3869 27 19.6761 27.7902 21.364 29.1967C23.0518 30.6032 24 32.5109 24 34.5C24 36.4891 23.0518 38.3968 21.364 39.8033C19.6761 41.2098 17.3869 42 15 42Z" fill="#EDEDED"/>
<path d="M44.5714 0H3.42857C2.51926 0 1.64719 0.361223 1.00421 1.00421C0.361223 1.64719 0 2.51926 0 3.42857V44.5714C0 45.4807 0.361223 46.3528 1.00421 46.9958C1.64719 47.6388 2.51926 48 3.42857 48H44.5714C45.4803 47.9986 46.3516 47.637 46.9943 46.9943C47.637 46.3516 47.9986 45.4803 48 44.5714V3.42857C48 2.51926 47.6388 1.64719 46.9958 1.00421C46.3528 0.361223 45.4807 0 44.5714 0ZM44.5714 15.4286H20.5714V3.42857H44.5714V15.4286ZM17.1429 3.42857V15.4286H3.42857V3.42857H17.1429ZM3.42857 44.5714V18.8571H44.5714L44.5749 44.5714H3.42857Z" fill="#EDEDED"/>
</g>
<defs>
<clipPath id="clip0_30_501">
<rect width="48" height="48" fill="white"/>
</clipPath>
</defs>
</svg>
