<svg width="48" height="49" viewBox="0 0 48 49" fill="none" xmlns="http://www.w3.org/2000/svg">
<g clip-path="url(#clip0_30_513)">
<path d="M24.0055 32.9C21.7151 32.9 19.5186 32.015 17.8991 30.4397C16.2796 28.8644 15.3698 26.7278 15.3698 24.5C15.3698 22.2722 16.2796 20.1356 17.8991 18.5603C19.5186 16.985 21.7151 16.1 24.0055 16.1C26.2958 16.1 28.4923 16.985 30.1118 18.5603C31.7313 20.1356 32.6411 22.2722 32.6411 24.5C32.6411 26.7278 31.7313 28.8644 30.1118 30.4397C28.4923 32.015 26.2958 32.9 24.0055 32.9ZM42.3377 26.828C42.4364 26.06 42.5104 25.292 42.5104 24.5C42.5104 23.708 42.4364 22.916 42.3377 22.1L47.5438 18.188C48.0126 17.828 48.1359 17.18 47.8398 16.652L42.9052 8.348C42.6091 7.82 41.9429 7.604 41.4001 7.82L35.2565 10.22C33.9735 9.284 32.6411 8.468 31.0867 7.868L30.1738 1.508C30.1236 1.22533 29.9723 0.969029 29.7465 0.784528C29.5207 0.600027 29.235 0.499233 28.9401 0.500004H19.0708C18.454 0.500004 17.9358 0.932005 17.8371 1.508L16.9242 7.868C15.3698 8.468 14.0374 9.284 12.7544 10.22L6.61079 7.82C6.06798 7.604 5.4018 7.82 5.10572 8.348L0.171064 16.652C-0.149689 17.18 -0.00164891 17.828 0.467143 18.188L5.6732 22.1C5.57451 22.916 5.50049 23.708 5.50049 24.5C5.50049 25.292 5.57451 26.06 5.6732 26.828L0.467143 30.812C-0.00164891 31.172 -0.149689 31.82 0.171064 32.348L5.10572 40.652C5.4018 41.18 6.06798 41.372 6.61079 41.18L12.7544 38.756C14.0374 39.716 15.3698 40.532 16.9242 41.132L17.8371 47.492C17.9358 48.068 18.454 48.5 19.0708 48.5H28.9401C29.5569 48.5 30.0751 48.068 30.1738 47.492L31.0867 41.132C32.6411 40.508 33.9735 39.716 35.2565 38.756L41.4001 41.18C41.9429 41.372 42.6091 41.18 42.9052 40.652L47.8398 32.348C48.1359 31.82 48.0126 31.172 47.5438 30.812L42.3377 26.828Z" fill="#EDEDED"/>
</g>
<defs>
<clipPath id="clip0_30_513">
<rect width="48" height="48" fill="white" transform="translate(0 0.5)"/>
</clipPath>
</defs>
</svg>
