<svg width="48" height="48" viewBox="0 0 48 48" fill="none" xmlns="http://www.w3.org/2000/svg">
<g clip-path="url(#clip0_30_507)">
<path d="M11.592 36H18.576C16.9371 34.7533 15.6544 33.0981 14.856 31.2H12C10.0904 31.2 8.25909 30.4414 6.90883 29.0912C5.55857 27.7409 4.8 25.9096 4.8 24C4.8 22.0904 5.55857 20.2591 6.90883 18.9088C8.25909 17.5586 10.0904 16.8 12 16.8H19.2C20.3502 16.8032 21.4828 17.0819 22.5031 17.6128C23.5234 18.1437 24.4017 18.9113 25.0644 19.8513C25.7271 20.7913 26.155 21.8765 26.3122 23.0158C26.4694 24.1552 26.3514 25.3156 25.968 26.4H31.008C31.1274 25.7425 31.1916 25.0762 31.2 24.408V23.592C31.2 20.5176 29.9787 17.5691 27.8048 15.3952C25.6309 13.2213 22.6824 12 19.608 12H11.592C8.51761 12 5.56914 13.2213 3.39522 15.3952C1.2213 17.5691 0 20.5176 0 23.592L0 24.408C0 27.4824 1.2213 30.4309 3.39522 32.6048C5.56914 34.7787 8.51761 36 11.592 36Z" fill="#EDEDED"/>
<path d="M36.4078 12H29.4238C31.0627 13.2467 32.3454 14.9019 33.1438 16.8H35.9998C37.9094 16.8 39.7407 17.5586 41.091 18.9088C42.4412 20.2591 43.1998 22.0904 43.1998 24C43.1998 25.9096 42.4412 27.7409 41.091 29.0912C39.7407 30.4414 37.9094 31.2 35.9998 31.2H28.7998C27.6497 31.1968 26.517 30.9181 25.4967 30.3872C24.4764 29.8563 23.5981 29.0887 22.9354 28.1487C22.2727 27.2087 21.8448 26.1235 21.6876 24.9842C21.5304 23.8448 21.6484 22.6844 22.0318 21.6H16.9918C16.8725 22.2575 16.8082 22.9238 16.7998 23.592V24.408C16.7998 27.4824 18.0211 30.4309 20.195 32.6048C22.3689 34.7787 25.3174 36 28.3918 36H36.4078C37.9301 36 39.4375 35.7002 40.8439 35.1176C42.2503 34.5351 43.5282 33.6812 44.6046 32.6048C45.681 31.5284 46.5349 30.2505 47.1174 28.8441C47.7 27.4377 47.9998 25.9303 47.9998 24.408V23.592C47.9998 22.0697 47.7 20.5623 47.1174 19.1559C46.5349 17.7495 45.681 16.4716 44.6046 15.3952C43.5282 14.3188 42.2503 13.4649 40.8439 12.8824C39.4375 12.2998 37.9301 12 36.4078 12Z" fill="#EDEDED"/>
</g>
<defs>
<clipPath id="clip0_30_507">
<rect width="48" height="48" fill="white"/>
</clipPath>
</defs>
</svg>
