<svg width="48" height="48" viewBox="0 0 48 48" fill="none" xmlns="http://www.w3.org/2000/svg">
<g clip-path="url(#clip0_169_5)">
<path d="M24 0C37.2552 0 48 10.7448 48 24C48 37.2552 37.2552 48 24 48C19.7586 48.0073 15.5918 46.8848 11.928 44.748L0.00963709 48L3.25443 36.0768C1.11594 32.4118 -0.0073959 28.2432 3.66448e-05 24C3.66448e-05 10.7448 10.7448 0 24 0ZM15.8208 12.72L15.3408 12.7392C15.0305 12.7606 14.7273 12.8421 14.448 12.9792C14.1878 13.1268 13.9502 13.3111 13.7424 13.5264C13.4544 13.7976 13.2912 14.0328 13.116 14.2608C12.2283 15.415 11.7504 16.8319 11.7576 18.288C11.7624 19.464 12.0696 20.6088 12.5496 21.6792C13.5312 23.844 15.1464 26.136 17.2776 28.26C17.7912 28.7712 18.2952 29.2848 18.8376 29.7624C21.4859 32.0937 24.6415 33.7751 28.0536 34.6728L29.4168 34.8816C29.8608 34.9056 30.3048 34.872 30.7512 34.8504C31.4501 34.8135 32.1324 34.6243 32.7504 34.296C33.0644 34.1336 33.3711 33.9574 33.6696 33.768C33.6696 33.768 33.7712 33.6992 33.9696 33.552C34.2936 33.312 34.4928 33.1416 34.7616 32.8608C34.9632 32.6528 35.1312 32.4112 35.2656 32.136C35.4528 31.7448 35.64 30.9984 35.7168 30.3768C35.7744 29.9016 35.7576 29.6424 35.7504 29.4816C35.7408 29.2248 35.5272 28.9584 35.2944 28.8456L33.8976 28.2192C33.8976 28.2192 31.8096 27.3096 30.5328 26.7288C30.3992 26.6706 30.256 26.6373 30.1104 26.6304C29.9462 26.6132 29.7802 26.6315 29.6237 26.6841C29.4671 26.7367 29.3238 26.8223 29.2032 26.9352C29.1912 26.9304 29.0304 27.0672 27.2952 29.1696C27.1956 29.3034 27.0584 29.4045 26.9011 29.4601C26.7439 29.5157 26.5736 29.5232 26.412 29.4816C26.2556 29.4399 26.1024 29.387 25.9536 29.3232C25.656 29.1984 25.5528 29.1504 25.3488 29.064C23.9709 28.4638 22.6955 27.6515 21.5688 26.6568C21.2664 26.3928 20.9856 26.1048 20.6976 25.8264C19.7535 24.9221 18.9306 23.8991 18.2496 22.7832L18.108 22.5552C18.0079 22.4011 17.9257 22.236 17.8632 22.0632C17.772 21.7104 18.0096 21.4272 18.0096 21.4272C18.0096 21.4272 18.5928 20.7888 18.864 20.4432C19.128 20.1072 19.3512 19.7808 19.4952 19.548C19.7784 19.092 19.8672 18.624 19.7184 18.2616C19.0464 16.62 18.352 14.9872 17.6352 13.3632C17.4936 13.0416 17.0736 12.8112 16.692 12.7656C16.5624 12.7496 16.4328 12.7368 16.3032 12.7272C15.981 12.7087 15.6578 12.7119 15.336 12.7368L15.8208 12.72Z" fill="#EDEDED"/>
</g>
<defs>
<clipPath id="clip0_169_5">
<rect width="48" height="48" fill="white"/>
</clipPath>
</defs>
</svg>
